<?xml version="1.0" encoding="UTF-8" standalone="no"?>
<!-- Created with Inkscape (http://www.inkscape.org/) -->

<svg
   width="85.599998mm"
   height="32.256088mm"
   viewBox="0 0 85.599998 32.256088"
   version="1.1"
   id="svg1"
   xmlns:inkscape="http://www.inkscape.org/namespaces/inkscape"
   xmlns:sodipodi="http://sodipodi.sourceforge.net/DTD/sodipodi-0.dtd"
   xmlns="http://www.w3.org/2000/svg"
   xmlns:svg="http://www.w3.org/2000/svg"
   xmlns:ns3="http://www.iki.fi/pav/software/textext/">
  <sodipodi:namedview
     id="namedview1"
     pagecolor="#ffffff"
     bordercolor="#000000"
     borderopacity="0.25"
     inkscape:showpageshadow="2"
     inkscape:pageopacity="0.0"
     inkscape:pagecheckerboard="0"
     inkscape:deskcolor="#d1d1d1"
     inkscape:document-units="mm"
     inkscape:zoom="1.7597062"
     inkscape:cx="173.89266"
     inkscape:cy="309.14251"
     inkscape:window-width="1902"
     inkscape:window-height="1028"
     inkscape:window-x="0"
     inkscape:window-y="0"
     inkscape:window-maximized="1"
     inkscape:current-layer="layer1"
     showgrid="true">
    <inkscape:grid
       id="grid3"
       units="mm"
       originx="-24.700001"
       originy="-33.043953"
       spacingx="0.99999998"
       spacingy="1"
       empcolor="#0099e5"
       empopacity="0.30196078"
       color="#0099e5"
       opacity="0.14901961"
       empspacing="5"
       enabled="true"
       visible="true" />
    <inkscape:page
       x="0"
       y="0"
       width="85.599998"
       height="32.256088"
       id="page2"
       margin="0"
       bleed="0" />
  </sodipodi:namedview>
  <defs
     id="defs1">
    <inkscape:path-effect
       effect="skeletal"
       id="path-effect2"
       is_visible="true"
       lpeversion="1"
       pattern="m -31.643543,-80.608783 c 0.525599,-0.655885 1.051199,-1.31239 1.576818,-1.952845 0.5256,-0.641074 1.051199,-1.266718 1.576799,-1.862132 0.525619,-0.595414 1.051218,-1.161214 1.576818,-1.683822 0.525599,-0.521989 1.051198,-1.001407 1.576817,-1.425909 0.525521,-0.425059 1.051278,-0.795389 1.576839,-1.102783 0.52556,-0.307456 1.051119,-0.551607 1.576877,-0.727269 0.52556,-0.175601 1.05112,-0.28222 1.57668,-0.317822 0.52556,-0.03561 1.051317,2.46e-4 1.576877,0.106376 0.52556,0.10606 1.05112,0.282776 1.576877,0.525631 0.52556,0.242794 1.05112,0.552102 1.57668,0.920271 0.52556,0.368232 1.051317,0.795511 1.576878,1.271843 0.52556,0.476331 1.05112,1.002024 1.576877,1.56412 0.52556,0.562087 1.05112,1.161211 1.57668,1.783158 0.52556,0.621947 1.051318,1.266717 1.5768755,1.918893 0.5255644,0.652191 1.0511215,1.312391 1.5768799,1.964567 0.5255572,0.652794 1.0511215,1.29696 1.5766787,1.918907 0.5255587,0.621933 1.0513167,1.221057 1.5768795,1.783151 0.5255587,0.562712 1.0511159,1.087789 1.5768743,1.564115 0.5255643,0.47634 1.0511215,0.903929 1.5766787,1.272282 0.5255643,0.368354 1.05132235,0.676854 1.5768795,0.919964 0.52555716,0.243095 1.05112152,0.419564 1.5768796,0.525695 0.5255575,0.106131 1.0511158,0.14194 1.576679,0.106707 0.5255587,-0.03581 1.0513152,-0.142515 1.5768739,-0.31838 0.5255643,-0.175232 1.0511215,-0.419564 1.5768787,-0.726827 0.5255595,-0.307278 1.0511227,-0.678105 1.5766783,-1.102602 0.5255671,-0.425115 1.0513164,-0.903914 1.5768796,-1.426532 0.5255594,-0.522604 1.0511228,-1.087789 1.5768758,-1.683822 0.525563,-0.595414 1.051119,-1.221057 1.576686,-1.861513 0.525555,-0.641074 1.051312,-1.29696 1.576872,-1.95345"
       copytype="repeated_stretched"
       prop_scale="1.515"
       scale_y_rel="false"
       spacing="0"
       normal_offset="0"
       tang_offset="0"
       prop_units="false"
       vertical_pattern="false"
       hide_knot="false"
       fuse_tolerance="0" />
  </defs>
  <g
     inkscape:label="Layer 1"
     inkscape:groupmode="layer"
     id="layer1"
     transform="translate(-24.700001,-33.043953)">
    <path
       style="fill:none;fill-opacity:1;stroke:#000000;stroke-width:3.08084;stroke-linecap:round;stroke-linejoin:round"
       d="m 87.009259,199.89412 c 0.52964,-0.99367 1.059282,-1.98827 1.588942,-2.95856 0.529641,-0.97123 1.059282,-1.91908 1.588923,-2.82113 0.529661,-0.90205 1.059301,-1.75924 1.588942,-2.55099 0.529641,-0.79082 1.059281,-1.51713 1.588941,-2.16025 0.529562,-0.64397 1.059362,-1.20502 1.588964,-1.67072 0.529601,-0.4658 1.059201,-0.83569 1.589001,-1.10181 0.529601,-0.26604 1.059202,-0.42757 1.588803,-0.4815 0.529602,-0.0539 1.059401,3.7e-4 1.589002,0.16116 0.529603,0.16068 1.059203,0.4284 1.589003,0.79633 0.5296,0.36783 1.0592,0.83643 1.5888,1.39421 0.5296,0.55787 1.0594,1.2052 1.589,1.92684 0.52961,0.72164 1.05921,1.51806 1.58901,2.36964 0.5296,0.85156 1.0592,1.75923 1.5888,2.70148 0.5296,0.94225 1.0594,1.91908 1.589,2.90713 0.5296,0.98807 1.0592,1.98827 1.589,2.97632 0.5296,0.98898 1.05921,1.96489 1.58881,2.90714 0.5296,0.94223 1.0594,1.8499 1.589,2.70147 0.5296,0.85251 1.0592,1.648 1.589,2.36964 0.5296,0.72165 1.0592,1.36945 1.5888,1.9275 0.52961,0.55806 1.05941,1.02544 1.589,1.39375 0.5296,0.36829 1.05921,0.63564 1.58901,0.79643 0.5296,0.16079 1.0592,0.21504 1.5888,0.16166 0.5296,-0.0542 1.0594,-0.21591 1.589,-0.48235 0.5296,-0.26547 1.0592,-0.63564 1.589,-1.10114 0.5296,-0.46553 1.05921,-1.02733 1.5888,-1.67044 0.52961,-0.64405 1.0594,-1.36943 1.58901,-2.1612 0.5296,-0.79174 1.0592,-1.648 1.589,-2.55099 0.5296,-0.90205 1.0592,-1.8499 1.58881,-2.82019 0.52959,-0.97123 1.05939,-1.9649 1.58899,-2.95948 0.52964,-0.99362 1.05929,-1.98823 1.58895,-2.95852 0.52964,-0.97122 1.05928,-1.91907 1.58892,-2.82113 0.52966,-0.90205 1.0593,-1.75924 1.58894,-2.55099 0.52964,-0.79081 1.05928,-1.51713 1.58894,-2.16025 0.52956,-0.64396 1.05936,-1.20501 1.58897,-1.67072 0.5296,-0.46579 1.0592,-0.83568 1.589,-1.10181 0.5296,-0.26603 1.0592,-0.42756 1.5888,-0.4815 0.5296,-0.0539 1.0594,3.7e-4 1.589,0.16116 0.5296,0.16068 1.0592,0.42841 1.589,0.79633 0.5296,0.36783 1.05921,0.83644 1.58881,1.39421 0.5296,0.55787 1.0594,1.2052 1.589,1.92684 0.5296,0.72165 1.0592,1.51807 1.589,2.36965 0.5296,0.85156 1.0592,1.75923 1.5888,2.70148 0.52961,0.94225 1.05941,1.91908 1.589,2.90712 0.52961,0.98807 1.05921,1.98828 1.58901,2.97632 0.5296,0.98898 1.0592,1.9649 1.5888,2.90715 0.5296,0.94222 1.0594,1.8499 1.589,2.70147 0.5296,0.85251 1.0592,1.648 1.589,2.36963 0.52961,0.72166 1.05921,1.36946 1.58881,1.92751 0.5296,0.55806 1.0594,1.02543 1.589,1.39375 0.5296,0.36828 1.0592,0.63564 1.589,0.79642 0.5296,0.16079 1.0592,0.21504 1.58881,0.16166 0.5296,-0.0542 1.05939,-0.21591 1.58899,-0.48234 0.52961,-0.26548 1.05921,-0.63564 1.58901,-1.10114 0.5296,-0.46553 1.0592,-1.02733 1.5888,-1.67045 0.52961,-0.64405 1.0594,-1.36943 1.589,-2.16119 0.5296,-0.79175 1.05921,-1.648 1.589,-2.55099 0.52961,-0.90206 1.0592,-1.8499 1.58881,-2.8202 0.5296,-0.97122 1.0594,-1.96489 1.589,-2.95947 0.52964,-0.99363 1.05928,-1.98823 1.58894,-2.95852 0.52964,-0.97123 1.05928,-1.91908 1.58892,-2.82113 0.52967,-0.90205 1.05931,-1.75924 1.58895,-2.55099 0.52964,-0.79081 1.05928,-1.51713 1.58894,-2.16025 0.52956,-0.64397 1.05936,-1.20502 1.58896,-1.67072 0.5296,-0.4658 1.0592,-0.83568 1.589,-1.10181 0.5296,-0.26604 1.0592,-0.42757 1.58881,-0.4815 0.5296,-0.0539 1.0594,3.7e-4 1.589,0.16116 0.5296,0.16068 1.0592,0.4284 1.589,0.79633 0.5296,0.36783 1.0592,0.83643 1.5888,1.39421 0.5296,0.55787 1.0594,1.2052 1.589,1.92684 0.52961,0.72164 1.05921,1.51807 1.58901,2.36964 0.5296,0.85156 1.0592,1.75924 1.5888,2.70149 0.5296,0.94225 1.0594,1.91907 1.589,2.90712 0.52961,0.98807 1.0592,1.98827 1.589,2.97632 0.5296,0.98898 1.05921,1.96489 1.58881,2.90714 0.5296,0.94223 1.0594,1.8499 1.589,2.70148 0.5296,0.8525 1.0592,1.648 1.589,2.36963 0.5296,0.72165 1.0592,1.36945 1.5888,1.92751 0.52961,0.55805 1.05941,1.02543 1.589,1.39374 0.5296,0.36829 1.05921,0.63564 1.58901,0.79643 0.5296,0.16079 1.0592,0.21504 1.5888,0.16166 0.5296,-0.0542 1.0594,-0.21591 1.589,-0.48235 0.52961,-0.26547 1.0592,-0.63563 1.589,-1.10114 0.5296,-0.46552 1.05921,-1.02733 1.5888,-1.67044 0.52961,-0.64405 1.0594,-1.36943 1.58901,-2.1612 0.5296,-0.79174 1.0592,-1.648 1.589,-2.55099 0.5296,-0.90205 1.0592,-1.8499 1.58881,-2.82019 0.52959,-0.97123 1.05939,-1.96489 1.58899,-2.95948 0.52965,-0.99362 1.05929,-1.98822 1.58895,-2.95851 0.52964,-0.97123 1.05928,-1.91908 1.58892,-2.82113 0.52966,-0.90206 1.0593,-1.75924 1.58894,-2.55099 0.52964,-0.79082 1.05928,-1.51714 1.58894,-2.16026 0.52956,-0.64396 1.05936,-1.20501 1.58897,-1.67071 0.5296,-0.4658 1.0592,-0.83569 1.589,-1.10182 0.5296,-0.26603 1.0592,-0.42756 1.5888,-0.4815 0.5296,-0.0539 1.0594,3.8e-4 1.589,0.16116 0.5296,0.16068 1.0592,0.42841 1.589,0.79633 0.52961,0.36784 1.05921,0.83644 1.58881,1.39421 0.5296,0.55788 1.0594,1.2052 1.589,1.92685 0.5296,0.72164 1.0592,1.51806 1.589,2.36964 0.5296,0.85156 1.0592,1.75923 1.5888,2.70148 0.52961,0.94225 1.05941,1.91908 1.589,2.90712 0.52961,0.98807 1.05921,1.98828 1.58901,2.97632 0.5296,0.98899 1.0592,1.9649 1.5888,2.90715 0.5296,0.94223 1.0594,1.8499 1.58901,2.70147 0.5296,0.85251 1.05919,1.648 1.58899,2.36964 0.52961,0.72165 1.05921,1.36945 1.58881,1.9275 0.5296,0.55806 1.0594,1.02544 1.589,1.39375 0.5296,0.36829 1.0592,0.63564 1.589,0.79643 0.5296,0.16078 1.0592,0.21503 1.58881,0.16166 0.5296,-0.0543 1.0594,-0.21591 1.58899,-0.48235 0.52961,-0.26548 1.05921,-0.63564 1.58901,-1.10114 0.5296,-0.46553 1.0592,-1.02733 1.5888,-1.67044 0.52961,-0.64405 1.0594,-1.36943 1.589,-2.1612 0.5296,-0.79175 1.05921,-1.648 1.589,-2.55099 0.52961,-0.90205 1.05921,-1.8499 1.58881,-2.82019 0.5296,-0.97123 1.0594,-1.9649 1.589,-2.95948 0.52964,-0.99362 1.05928,-1.98823 1.58894,-2.95852 0.52964,-0.97123 1.05928,-1.91908 1.58893,-2.82113 0.52966,-0.90205 1.0593,-1.75924 1.58894,-2.55099 0.52964,-0.79081 1.05928,-1.51713 1.58894,-2.16025 0.52956,-0.64397 1.05936,-1.20502 1.58896,-1.67072 0.5296,-0.46579 1.0592,-0.83568 1.589,-1.10181 0.5296,-0.26604 1.05921,-0.42756 1.58881,-0.4815 0.5296,-0.0539 1.0594,3.7e-4 1.589,0.16116 0.5296,0.16068 1.0592,0.4284 1.589,0.79633 0.5296,0.36783 1.0592,0.83643 1.5888,1.39421 0.5296,0.55787 1.0594,1.2052 1.58901,1.92684 0.5296,0.72164 1.0592,1.51807 1.589,2.36964 0.5296,0.85157 1.0592,1.75924 1.5888,2.70149 0.5296,0.94225 1.0594,1.91907 1.589,2.90712 0.52961,0.98807 1.0592,1.98827 1.589,2.97632 0.5296,0.98898 1.05921,1.96489 1.58881,2.90714 0.5296,0.94223 1.0594,1.84991 1.589,2.70148 0.5296,0.85251 1.0592,1.648 1.589,2.36963 0.5296,0.72166 1.0592,1.36945 1.5888,1.92751 0.52961,0.55805 1.05941,1.02543 1.58901,1.39374 0.52959,0.36829 1.0592,0.63564 1.589,0.79643 0.5296,0.16079 1.0592,0.21504 1.5888,0.16166 0.5296,-0.0542 1.0594,-0.21591 1.589,-0.48234 0.52961,-0.26548 1.0592,-0.63564 1.589,-1.10115 0.5296,-0.46552 1.05921,-1.02733 1.5888,-1.67044 0.52961,-0.64405 1.0594,-1.36943 1.58901,-2.16119 0.5296,-0.79175 1.0592,-1.648 1.589,-2.55099 0.5296,-0.90206 1.0592,-1.84991 1.58881,-2.8202 0.52959,-0.97122 1.05939,-1.96489 1.589,-2.95947"
       id="path2"
       inkscape:path-effect="#path-effect2"
       inkscape:original-d="m 87.009259,199.89435 230.395791,-2e-5"
       sodipodi:nodetypes="cc"
       transform="matrix(0.19531606,0,0,0.1941913,28.005695,11.1823)" />
    <path
       style="fill:none;fill-opacity:1;stroke:#000000;stroke-width:0.600001;stroke-linecap:round;stroke-linejoin:round"
       d="M 45.000001,50.00004 25,65.00004"
       id="path3"
       sodipodi:nodetypes="cc" />
    <path
       style="fill:none;fill-opacity:1;stroke:#000000;stroke-width:0.600001;stroke-linecap:round;stroke-linejoin:round"
       d="M 45.000001,50.00004 25,35.00005"
       id="path4"
       sodipodi:nodetypes="cc" />
    <path
       style="fill:none;fill-opacity:1;stroke:#000000;stroke-width:0.600001;stroke-linecap:round;stroke-linejoin:round"
       d="M 89.999999,50.00004 110,65.00004"
       id="path5"
       sodipodi:nodetypes="cc" />
    <path
       style="fill:none;fill-opacity:1;stroke:#000000;stroke-width:0.600001;stroke-linecap:round;stroke-linejoin:round"
       d="M 89.999999,50.00004 110,35.00005"
       id="path6"
       sodipodi:nodetypes="cc" />
    <g
       transform="matrix(0.8881391,0,0,0.8881391,39.936782,33.647086)"
       ns3:version="1.10.2"
       ns3:texconverter="pdflatex"
       ns3:pdfconverter="inkscape"
       ns3:text="$\\frac{g}{\\sqrt{2}}$"
       ns3:preamble="/home/edoardo/.config/inkscape/extensions/textext/default_packages.tex"
       ns3:scale="2.8248104425281424"
       ns3:alignment="middle center"
       ns3:stroke-to-path="0"
       ns3:jacobian_sqrt="0.996531"
       id="g9"
       style="stroke-width:1.12205">
      <defs
         id="id-0c584fd3-be22-4b3c-9458-9ae67e29364d" />
      <g
         fill="#000000"
         fill-opacity="1"
         id="id-0188ffcb-5359-4ba3-be68-6657479c4d87"
         transform="translate(-149.906,-127.242)"
         style="stroke-width:1.12205">
        <g
           transform="translate(153.097,130.32)"
           id="g6"
           style="stroke-width:1.12205">
          <path
             d="m 3.703125,-2.578125 c 0.03125,-0.09375 0.03125,-0.125 0.03125,-0.140625 0,-0.15625 -0.125,-0.21875 -0.234375,-0.21875 -0.15625,0 -0.296875,0.125 -0.328125,0.265625 -0.109375,-0.1875 -0.34375,-0.40625 -0.71875,-0.40625 -0.859375,0 -1.78125,0.9375 -1.78125,1.9375 0,0.71875 0.484375,1.140625 1.0625,1.140625 0.328125,0 0.625,-0.15625 0.875,-0.375 L 2.453125,0.25 C 2.375,0.546875 2.328125,0.734375 2.0625,0.96875 c -0.3125,0.25 -0.609375,0.25 -0.78125,0.25 -0.3125,0 -0.40625,-0.015625 -0.53125,-0.046875 0.171875,-0.078125 0.21875,-0.25 0.21875,-0.34375 0,-0.171875 -0.125,-0.25 -0.265625,-0.25 C 0.5,0.578125 0.296875,0.734375 0.296875,1 c 0,0.421875 0.609375,0.421875 1,0.421875 1.09375,0 1.546875,-0.5625 1.65625,-0.953125 z M 2.75,-0.921875 c -0.03125,0.09375 -0.03125,0.109375 -0.15625,0.25 C 2.359375,-0.375 2.015625,-0.1875 1.75,-0.1875 c -0.34375,0 -0.515625,-0.3125 -0.515625,-0.671875 0,-0.296875 0.1875,-1.078125 0.375,-1.390625 0.28125,-0.484375 0.609375,-0.625 0.84375,-0.625 0.5,0 0.625,0.515625 0.625,0.59375 0,0.015625 0,0.015625 -0.015625,0.09375 z m 0,0"
             id="id-9c81d091-2d89-4ba2-802f-e3c41707238c"
             style="stroke-width:1.12205" />
        </g>
      </g>
      <path
         fill="none"
         stroke-width="0.446573"
         stroke-linecap="butt"
         stroke-linejoin="miter"
         stroke="#000000"
         stroke-opacity="1"
         stroke-miterlimit="10"
         d="M 0,5.0315552 H 10.519531"
         id="id-cebaeea3-4c7d-4f33-a953-3bb66183cdc5" />
      <g
         fill="#000000"
         fill-opacity="1"
         id="id-dca1c549-e9df-4a8d-acbf-0e971b36869a"
         transform="translate(-149.906,-127.242)"
         style="stroke-width:1.12205">
        <g
           transform="translate(149.908,133.549)"
           id="g7"
           style="stroke-width:1.12205">
          <path
             d="M 3.09375,5.875 1.71875,3.15625 C 1.6875,3.09375 1.671875,3.046875 1.609375,3.046875 c -0.03125,0 -0.046875,0 -0.109375,0.046875 l -0.75,0.5 C 0.65625,3.65625 0.65625,3.6875 0.65625,3.71875 0.65625,3.75 0.6875,3.8125 0.75,3.8125 c 0.03125,0 0.046875,0 0.140625,-0.0625 C 0.96875,3.6875 1.15625,3.546875 1.25,3.5 L 2.78125,6.515625 C 2.828125,6.609375 2.84375,6.625 2.9375,6.625 3,6.625 3.078125,6.625 3.140625,6.5 l 3.5,-6.53125 c 0.0625,-0.09375 0.0625,-0.09375 0.0625,-0.140625 0,-0.109375 -0.09375,-0.171875 -0.171875,-0.171875 -0.09375,0 -0.140625,0.0625 -0.171875,0.15625 z m 0,0"
             id="id-2e20aafc-8dea-4010-9a66-cb6bc1cad0ff"
             style="stroke-width:1.12205" />
        </g>
      </g>
      <path
         fill="none"
         stroke-width="0.380373"
         stroke-linecap="butt"
         stroke-linejoin="miter"
         stroke="#000000"
         stroke-opacity="1"
         stroke-miterlimit="10"
         d="m 6.546875,6.1370239 h 3.972656"
         id="id-04770731-e7f1-4a67-b087-c09c3e7ea33f" />
      <g
         fill="#000000"
         fill-opacity="1"
         id="id-524476e9-3da5-42d8-909d-0bf5c89fda87"
         transform="translate(-149.906,-127.242)"
         style="stroke-width:1.12205">
        <g
           transform="translate(156.453,139.326)"
           id="g8"
           style="stroke-width:1.12205">
          <path
             d="M 3.515625,-1.265625 H 3.28125 c -0.015625,0.15625 -0.09375,0.5625 -0.1875,0.625 C 3.046875,-0.59375 2.515625,-0.59375 2.40625,-0.59375 H 1.125 c 0.734375,-0.640625 0.984375,-0.84375 1.390625,-1.171875 0.515625,-0.40625 1,-0.84375 1,-1.5 0,-0.84375 -0.734375,-1.359375 -1.625,-1.359375 -0.859375,0 -1.453125,0.609375 -1.453125,1.25 0,0.34375 0.296875,0.390625 0.375,0.390625 0.15625,0 0.359375,-0.125 0.359375,-0.375 0,-0.125 -0.046875,-0.375 -0.40625,-0.375 C 0.984375,-4.21875 1.453125,-4.375 1.78125,-4.375 c 0.703125,0 1.0625,0.546875 1.0625,1.109375 0,0.609375 -0.4375,1.078125 -0.65625,1.328125 L 0.515625,-0.265625 C 0.4375,-0.203125 0.4375,-0.1875 0.4375,0 h 2.875 z m 0,0"
             id="id-3c091358-3235-4e53-9ee9-d6c5b51d3ed8"
             style="stroke-width:1.12205" />
        </g>
      </g>
    </g>
    <g
       transform="matrix(0.934658,0,0,0.934658,83.556353,33.044069)"
       ns3:version="1.10.2"
       ns3:texconverter="pdflatex"
       ns3:pdfconverter="inkscape"
       ns3:text="$\\frac{g}{\\sqrt{2}}$"
       ns3:preamble="/home/edoardo/.config/inkscape/extensions/textext/default_packages.tex"
       ns3:scale="2.8248104425281424"
       ns3:alignment="middle center"
       ns3:stroke-to-path="0"
       ns3:jacobian_sqrt="0.996531"
       id="g20"
       style="stroke-width:1.0662">
      <defs
         id="defs13" />
      <g
         fill="#000000"
         fill-opacity="1"
         id="g15"
         transform="translate(-149.906,-127.242)"
         style="stroke-width:1.0662">
        <g
           transform="translate(153.097,130.32)"
           id="g14"
           style="stroke-width:1.0662">
          <path
             d="m 3.703125,-2.578125 c 0.03125,-0.09375 0.03125,-0.125 0.03125,-0.140625 0,-0.15625 -0.125,-0.21875 -0.234375,-0.21875 -0.15625,0 -0.296875,0.125 -0.328125,0.265625 -0.109375,-0.1875 -0.34375,-0.40625 -0.71875,-0.40625 -0.859375,0 -1.78125,0.9375 -1.78125,1.9375 0,0.71875 0.484375,1.140625 1.0625,1.140625 0.328125,0 0.625,-0.15625 0.875,-0.375 L 2.453125,0.25 C 2.375,0.546875 2.328125,0.734375 2.0625,0.96875 c -0.3125,0.25 -0.609375,0.25 -0.78125,0.25 -0.3125,0 -0.40625,-0.015625 -0.53125,-0.046875 0.171875,-0.078125 0.21875,-0.25 0.21875,-0.34375 0,-0.171875 -0.125,-0.25 -0.265625,-0.25 C 0.5,0.578125 0.296875,0.734375 0.296875,1 c 0,0.421875 0.609375,0.421875 1,0.421875 1.09375,0 1.546875,-0.5625 1.65625,-0.953125 z M 2.75,-0.921875 c -0.03125,0.09375 -0.03125,0.109375 -0.15625,0.25 C 2.359375,-0.375 2.015625,-0.1875 1.75,-0.1875 c -0.34375,0 -0.515625,-0.3125 -0.515625,-0.671875 0,-0.296875 0.1875,-1.078125 0.375,-1.390625 0.28125,-0.484375 0.609375,-0.625 0.84375,-0.625 0.5,0 0.625,0.515625 0.625,0.59375 0,0.015625 0,0.015625 -0.015625,0.09375 z m 0,0"
             id="path13"
             style="stroke-width:1.0662" />
        </g>
      </g>
      <path
         fill="none"
         stroke-width="0.424347"
         stroke-linecap="butt"
         stroke-linejoin="miter"
         stroke="#000000"
         stroke-opacity="1"
         stroke-miterlimit="10"
         d="M 0,5.0315552 H 10.519531"
         id="path15" />
      <g
         fill="#000000"
         fill-opacity="1"
         id="g17"
         transform="translate(-149.906,-127.242)"
         style="stroke-width:1.0662">
        <g
           transform="translate(149.908,133.549)"
           id="g16"
           style="stroke-width:1.0662">
          <path
             d="M 3.09375,5.875 1.71875,3.15625 C 1.6875,3.09375 1.671875,3.046875 1.609375,3.046875 c -0.03125,0 -0.046875,0 -0.109375,0.046875 l -0.75,0.5 C 0.65625,3.65625 0.65625,3.6875 0.65625,3.71875 0.65625,3.75 0.6875,3.8125 0.75,3.8125 c 0.03125,0 0.046875,0 0.140625,-0.0625 C 0.96875,3.6875 1.15625,3.546875 1.25,3.5 L 2.78125,6.515625 C 2.828125,6.609375 2.84375,6.625 2.9375,6.625 3,6.625 3.078125,6.625 3.140625,6.5 l 3.5,-6.53125 c 0.0625,-0.09375 0.0625,-0.09375 0.0625,-0.140625 0,-0.109375 -0.09375,-0.171875 -0.171875,-0.171875 -0.09375,0 -0.140625,0.0625 -0.171875,0.15625 z m 0,0"
             id="path16"
             style="stroke-width:1.0662" />
        </g>
      </g>
      <path
         fill="none"
         stroke-width="0.361441"
         stroke-linecap="butt"
         stroke-linejoin="miter"
         stroke="#000000"
         stroke-opacity="1"
         stroke-miterlimit="10"
         d="m 6.546875,6.1370239 h 3.972656"
         id="path17" />
      <g
         fill="#000000"
         fill-opacity="1"
         id="g19"
         transform="translate(-149.906,-127.242)"
         style="stroke-width:1.0662">
        <g
           transform="translate(156.453,139.326)"
           id="g18"
           style="stroke-width:1.0662">
          <path
             d="M 3.515625,-1.265625 H 3.28125 c -0.015625,0.15625 -0.09375,0.5625 -0.1875,0.625 C 3.046875,-0.59375 2.515625,-0.59375 2.40625,-0.59375 H 1.125 c 0.734375,-0.640625 0.984375,-0.84375 1.390625,-1.171875 0.515625,-0.40625 1,-0.84375 1,-1.5 0,-0.84375 -0.734375,-1.359375 -1.625,-1.359375 -0.859375,0 -1.453125,0.609375 -1.453125,1.25 0,0.34375 0.296875,0.390625 0.375,0.390625 0.15625,0 0.359375,-0.125 0.359375,-0.375 0,-0.125 -0.046875,-0.375 -0.40625,-0.375 C 0.984375,-4.21875 1.453125,-4.375 1.78125,-4.375 c 0.703125,0 1.0625,0.546875 1.0625,1.109375 0,0.609375 -0.4375,1.078125 -0.65625,1.328125 L 0.515625,-0.265625 C 0.4375,-0.203125 0.4375,-0.1875 0.4375,0 h 2.875 z m 0,0"
             id="path18"
             style="stroke-width:1.0662" />
        </g>
      </g>
    </g>
  </g>
</svg>
